<?xml version="1.0" encoding="UTF-8"?><svg id="Layer_1" xmlns="http://www.w3.org/2000/svg" width="120.6" height="122.37" viewBox="0 0 120.6 122.37"><path d="m45.85,59.19h29.16c8.12,0,14.51-6.87,14.51-15.02v-27.8c0-7.91-6.63-13.86-14.56-15.18C69.95.36,64.77-.02,59.77,0c-4.99.02-9.61.45-13.81,1.19-12.35,2.18-14.45,6.75-14.45,15.18v10.82h29v4H20.29c-8.48,0-15.91,5.11-18.24,14.81-2.68,11.12-2.8,17.92,0,29.53,2.08,8.64,7.03,14.66,15.52,14.66h9.95v-13.05c0-9.64,8.43-17.95,18.33-17.95Zm-1.84-39.11c-3.03,0-5.48-2.48-5.48-5.55s2.45-5.58,5.48-5.58,5.48,2.5,5.48,5.58c0,3.07-2.47,5.55-5.48,5.55Z" style="fill:#ffd845; stroke-width:0px;"/><path d="m118.37,46c-2.1-8.45-6.1-14.81-14.6-14.81h-10.68v12.98c0,10.05-8.79,18.02-18.51,18.02h-29.16c-7.99,0-14.33,7.33-14.33,15.33v27.8c0,7.91,6.74,12.56,14.46,14.83,9.24,2.72,17.99,3.21,29.05,0,7.35-2.13,14.49-6.41,14.49-14.83v-11.13h-29v-4h43.68c8.48,0,11.65-5.78,14.6-14.66,3.05-9.15,2.92-17.8,0-29.53Zm-41.96,55.61c3.03,0,5.48,2.48,5.48,5.55s-2.45,5.58-5.48,5.58-5.48-2.5-5.48-5.58,2.46-5.55,5.48-5.55Z" style="fill:#488eff; stroke-width:0px;"/></svg>